<?xml version="1.0" encoding="UTF-8" standalone="no"?>
<!-- Created with Inkscape (http://www.inkscape.org/) -->

<svg
   xmlns:dc="http://purl.org/dc/elements/1.1/"
   xmlns:cc="http://creativecommons.org/ns#"
   xmlns:rdf="http://www.w3.org/1999/02/22-rdf-syntax-ns#"
   xmlns:svg="http://www.w3.org/2000/svg"
   xmlns="http://www.w3.org/2000/svg"
   xmlns:sodipodi="http://sodipodi.sourceforge.net/DTD/sodipodi-0.dtd"
   xmlns:inkscape="http://www.inkscape.org/namespaces/inkscape"
   width="128"
   height="128"
   viewBox="0 0 33.866666 33.866668"
   version="1.1"
   id="svg8"
   inkscape:version="0.92.3 (2405546, 2018-03-11)"
   sodipodi:docname="icon.svg">
  <defs
     id="defs2" />
  <sodipodi:namedview
     id="base"
     pagecolor="#ffffff"
     bordercolor="#666666"
     borderopacity="1.0"
     inkscape:pageopacity="0.0"
     inkscape:pageshadow="2"
     inkscape:zoom="0.49497475"
     inkscape:cx="-86.724438"
     inkscape:cy="674.28571"
     inkscape:document-units="mm"
     inkscape:current-layer="layer5"
     showgrid="false"
     inkscape:snap-object-midpoints="false"
     inkscape:snap-midpoints="false"
     inkscape:snap-nodes="false"
     inkscape:snap-others="false"
     units="px"
     inkscape:window-width="1920"
     inkscape:window-height="1017"
     inkscape:window-x="-8"
     inkscape:window-y="-8"
     inkscape:window-maximized="1" />
  <metadata
     id="metadata5">
    <rdf:RDF>
      <cc:Work
         rdf:about="">
        <dc:format>image/svg+xml</dc:format>
        <dc:type
           rdf:resource="http://purl.org/dc/dcmitype/StillImage" />
        <dc:title></dc:title>
      </cc:Work>
    </rdf:RDF>
  </metadata>
  <g
     inkscape:label="Ebene 1"
     inkscape:groupmode="layer"
     id="layer1"
     transform="translate(0,-263.13332)">
    <ellipse
       style="opacity:1;fill:none;stroke:#000000;stroke-width:1.44006062;stroke-miterlimit:4;stroke-dasharray:none;stroke-opacity:1"
       id="path10"
       ry="9.8000069"
       rx="12.251277"
       cy="276.3436"
       cx="14.546012" />
  </g>
  <g
     inkscape:groupmode="layer"
     id="layer5"
     inkscape:label="Ebene 5"
     transform="translate(0,-263.13332)">
    <path
       style="fill:none;stroke:#000000;stroke-width:1.44006062;stroke-linecap:butt;stroke-linejoin:miter;stroke-miterlimit:4;stroke-dasharray:none;stroke-opacity:1"
       d="m 31.334125,277.65639 c -13.154865,16.28469 2.245959,12.81986 2.245959,12.81986 l -17.005074,0.51973"
       id="path4639"
       inkscape:connector-curvature="0" />
    <path
       style="opacity:1;fill:#ffffff;fill-opacity:1;stroke:#000000;stroke-width:1.4400605;stroke-miterlimit:4;stroke-dasharray:none;stroke-opacity:1"
       id="path4641"
       sodipodi:type="arc"
       sodipodi:cx="30.211147"
       sodipodi:cy="277.05005"
       sodipodi:rx="1.4438268"
       sodipodi:ry="1.1260684"
       sodipodi:start="1.5444872"
       sodipodi:end="4.7003113"
       d="m 30.249129,278.17573 a 1.4438268,1.1260684 0 0 1 -1.272515,-0.54175 1.4438268,1.1260684 0 0 1 -0.02782,-1.13048 1.4438268,1.1260684 0 0 1 1.24492,-0.57944 l 0.01744,1.12599 z" />
    <path
       style="opacity:1;fill:#ffffff;fill-opacity:1;stroke:#000000;stroke-width:1.4400605;stroke-miterlimit:4;stroke-dasharray:none;stroke-opacity:1"
       id="path4643"
       sodipodi:type="arc"
       sodipodi:cx="11.60183"
       sodipodi:cy="291.68893"
       sodipodi:rx="7.5399847"
       sodipodi:ry="3.1183429"
       sodipodi:start="4.698242"
       sodipodi:end="1.4968564"
       d="m 11.495165,288.5709 a 7.5399847,3.1183429 0 0 1 7.639337,2.98074 7.5399847,3.1183429 0 0 1 -6.975674,3.24712 l -0.556998,-3.10983 z" />
    <path
       style="fill:none;stroke:#000000;stroke-width:2.4986043;stroke-linecap:butt;stroke-linejoin:miter;stroke-miterlimit:4;stroke-dasharray:none;stroke-opacity:1"
       d="m 4.7035402,290.12977 c 0.5347518,0 1.0695015,0 1.6042533,0 0.1069491,0 0.2139003,0 0.3208501,0 0.1069505,0 0.2251915,0.0258 0.3208508,0 0.1352838,-0.0365 0.1855685,-0.13672 0.3208501,-0.17324 0.095659,-0.0258 0.2138996,0 0.3208508,0 0.1069491,0 0.2139003,0 0.3208505,0 0.641701,0 1.283402,0 1.925104,0 0.08952,0 1.9924372,0 0.9625502,0"
       id="path4645"
       inkscape:connector-curvature="0" />
    <path
       style="fill:none;stroke:#000000;stroke-width:2.4986043;stroke-linecap:butt;stroke-linejoin:miter;stroke-miterlimit:4;stroke-dasharray:none;stroke-opacity:1"
       d="m 4.7115695,293.33473 c 0.5347518,0 1.0695022,0 1.6042533,0 0.1069491,0 0.2139003,0 0.3208501,0 0.1069512,0 0.2251915,0.0258 0.3208508,0 0.1352838,-0.0365 0.1855685,-0.13672 0.3208501,-0.17324 0.095659,-0.0258 0.2139003,0 0.3208508,0 0.1069491,0 0.2139003,0 0.3208502,0 0.641701,0 1.283402,0 1.925104,0 0.08952,0 1.9924382,0 0.9625502,0"
       id="path4645-7"
       inkscape:connector-curvature="0" />
  </g>
  <g
     inkscape:groupmode="layer"
     id="layer2"
     inkscape:label="Ebene 2"
     transform="translate(0,-263.13332)">
    <path
       style="opacity:1;fill:#000000;fill-opacity:1;stroke:#000000;stroke-width:1.07106888;stroke-miterlimit:4;stroke-dasharray:none;stroke-opacity:1"
       id="path4529"
       sodipodi:type="arc"
       sodipodi:cx="7.6751981"
       sodipodi:cy="274.65793"
       sodipodi:rx="6.0940409"
       sodipodi:ry="4.026473"
       sodipodi:start="0"
       sodipodi:end="3.0940096"
       d="m 13.769239,274.65793 a 6.0940409,4.026473 0 0 1 -5.9490681,4.02533 6.0940409,4.026473 0 0 1 -6.2321161,-3.83381 l 6.0871433,-0.19152 z" />
    <path
       style="opacity:1;fill:#000000;fill-opacity:1;stroke:#000000;stroke-width:1.071069;stroke-miterlimit:4;stroke-dasharray:none;stroke-opacity:1"
       id="path4529-6"
       sodipodi:type="arc"
       sodipodi:cx="20.515757"
       sodipodi:cy="274.3703"
       sodipodi:rx="6.0940418"
       sodipodi:ry="4.026473"
       sodipodi:start="0"
       sodipodi:end="3.0940096"
       d="m 26.609798,274.3703 a 6.0940418,4.026473 0 0 1 -5.949069,4.02533 6.0940418,4.026473 0 0 1 -6.232117,-3.83381 l 6.087145,-0.19152 z" />
  </g>
  <g
     inkscape:groupmode="layer"
     id="layer3"
     inkscape:label="Ebene 3"
     transform="translate(0,-263.13332)" />
  <g
     inkscape:groupmode="layer"
     id="layer4"
     inkscape:label="Ebene 4"
     transform="translate(0,-263.13332)" />
</svg>
